# AST/ASF file generated using VICON BodyLanguage
# -----------------------------------------------
:version 1.10
:name VICON
:units
  mass 1.0
  length 0.45
  angle deg
:documentation
   .ast/.asf automatically generated from VICON data using
   VICON BodyBuilder and BodyLanguage model FoxedUp or BRILLIANT.MOD
:root
   order TX TY TZ RX RY RZ
   axis XYZ
   position 0 0 0  
   orientation 0 -0 0 
:bonedata
  begin
     id 1 
     name lhipjoint
     direction 0.515797 -0.759363 0.396637 
     length 2.47888 
     axis 0 -0 0  XYZ
  end
  begin
     id 2 
     name lfemur
     direction 0.34202 -0.939693 0  
     length 6.81885  
     axis 0 -0 20  XYZ
    dof rx ry rz
    limits (-160.0 20.0)
           (-70.0 70.0)
           (-60.0 70.0)
  end
  begin
     id 3 
     name ltibia
     direction 0.342037 -0.939687 0   
     length 7.89258   
     axis 0 -0 20   XYZ
    dof rx
    limits (-10.0 170.0)
  end
  begin
     id 4 
     name lfoot
     direction 0.173497 -0.476678 0.861787   
     length 2.51543   
     axis -90 -1.13533e-015 20   XYZ
    dof rx rz
    limits (-45.0 90.0)
           (-70.0 20.0)
  end
  begin
     id 5 
     name ltoes
     direction 1.53564e-011 -4.21897e-011 1   
     length 1.21388   
     axis -90 -1.13533e-015 20   XYZ
    dof rx
    limits (-90.0 20.0)
  end
  begin
     id 6 
     name rhipjoint
     direction -0.489454 -0.772941 0.403729   
     length 2.43534  
     axis 0 -0 0  XYZ 
  end
  begin
     id 7 
     name rfemur
     direction -0.34202 -0.939693 0   
     length 7.10357   
     axis 0 -0 -20   XYZ
    dof rx ry rz
    limits (-160.0 20.0)
           (-70.0 70.0)
           (-70.0 60.0)
  end
  begin
     id 8 
     name rtibia
     direction -0.34202 -0.939693 0   
     length 9.16127   
     axis 0 -0 -20   XYZ
    dof rx
    limits (-10.0 170.0)
 end
 begin
     id 9 
     name rfoot
     direction -0.270974 -0.748671 0.605033   
     length 1.74894  
     axis -90 1.13533e-015 -20   XYZ
    dof rx rz
    limits (-45.0 90.0)
           (-20.0 70.0)
  end
  begin
     id 10 
     name rtoes
     direction -1.53557e-011 -4.21759e-011 1   
     length 0.787585   
     axis -90 1.13533e-015 -20   XYZ
    dof rx
    limits (-90.0 20.0)
  end
  begin
     id 11 
     name lowerback
     direction -0.0140249 0.999561 0.0260968   
     length 2.16963   
     axis 0 -0 0   XYZ
    dof rx ry rz
    limits (-20.0 45.0)
           (-30.0 30.0)
           (-30.0 30.0)
  end
  begin
     id 12 
     name upperback
     direction 0.00860018 0.999959 -0.002711   
     length 2.1726   
     axis 0 -0 0   XYZ
    dof rx ry rz
    limits (-20.0 45.0)
           (-30.0 30.0)
           (-30.0 30.0)
  end
  begin
     id 13 
     name thorax
     direction 0.015211 0.999782 -0.0143191   
     length 2.17061   
     axis 0 -0 0   XYZ
    dof rx ry rz
    limits (-20.0 45.0)
           (-30.0 30.0)
           (-30.0 30.0)
  end
  begin
     id 14 
     name lowerneck
     direction -0.0140143 0.999447 0.030145   
     length 2.26749   
     axis 0 -0 0   XYZ
    dof rx ry rz
    limits (-20.0 45.0)
           (-30.0 30.0)
           (-30.0 30.0)
  end
  begin
     id 15 
     name upperneck
     direction 0.118062 0.961438 -0.248392   
     length 2.22728   
     axis 0 -0 0   XYZ
    dof rx ry rz
    limits (-20.0 45.0)
           (-30.0 30.0)
           (-30.0 30.0)
  end
  begin
     id 16
     name head
     direction 0.0431885 0.9954 -0.085514  
     length 2.28786  
     axis 0 -0 0   XYZ
    dof rx ry rz
    limits (-20.0 45.0)
           (-30.0 30.0)
           (-30.0 30.0)
  end
  begin
     id 17 
     name lclavicle
     direction 0.912126 0.409548 0.0172323  
     length 4.31571  
     axis 0 -0 0   XYZ
    dof ry rz
    limits (-20.0 10.0)
           (0.0 20.0)
  end
  begin
     id 18 
     name lhumerus
     direction 1 -4.48977e-011 1.93091e-027   
     length 5.13658   
     axis 180 -30 -90   XYZ
    dof rx ry rz
    limits (-60.0 90.0)
           (-90.0 90.0)
           (-90.0 90.0)
  end
  begin
     id 19
     name lradius
     direction 1 -4.48916e-011 6.84018e-027   
     length 3.22473   
     axis 180 -30 -90   XYZ
    dof rx
    limits (-10.0 170.0)
  end
  begin
     id 20
     name lwrist
     direction 1 -4.48987e-011 7.01981e-027   
     length 1.61236   
     axis -4.37994e-015 90 90   XYZ
    dof ry
    limits (-180.0 0.0)
 end
  begin
     id 21 
     name lhand
     direction 1 -4.49037e-011 1.40335e-026   
     length 0.936406   
     axis -8.96029e-015 90 90   XYZ
    dof rx rz
    limits (-90.0 90.0)
           (-45.0 45.0)
  end
  begin
     id 22 
     name lfingers
     direction 1 -4.48886e-011 2.8104e-026   
     length 0.754955   
     axis -1.79203e-014 90 90   XYZ
    dof rx
    limits (0.0 90.0)
  end
  begin
     id 23
     name lthumb
     direction 0.707107 -6.34937e-011 0.707107   
     length 1.08397   
     axis -90 45 -4.48555e-014   XYZ
    dof rx rz
    limits (-45.0 45.0)
           (-45.0 45.0)
  end
  begin
     id 24 
     name rclavicle
     direction -0.947962 0.317997 0.0156638   
     length 4.86918  
     axis 0 -0 0   XYZ 
    dof ry rz
    limits (-10.0 20.0)
           (-20.0 0.0)
  end
  begin
     id 25 
     name rhumerus
     direction -1 -4.48951e-011 2.80534e-018  
     length 5.60911   
     axis 180 30 90   XYZ
    dof rx ry rz
    limits (-90.0 60.0)
           (-90.0 90.0)
           (-90.0 90.0)
  end
  begin
     id 26 
     name rradius
     direction -1 -4.4898e-011 2.11315e-027   
     length 3.38704   
     axis 180 30 90   XYZ
    dof rx
    limits (-10.0 170.0)
  end
  begin
     id 27 
     name rwrist
     direction -1 -4.48933e-011 7.02314e-027   
     length 1.69352   
     axis -4.37994e-015 -90 -90   XYZ
    dof ry
    limits (-180.0 0.0)
  end
  begin
     id 28
     name rhand
     direction -1 -4.48937e-011 1.40458e-026   
     length 0.755878   
     axis -8.96029e-015 -90 -90   XYZ
    dof rx rz
    limits (-90.0 90.0)
           (-45.0 45.0)
  end
  begin
     id 29
     name rfingers
     direction -1 -4.4901e-011 2.80737e-026   
     length 0.609409   
     axis -1.79203e-014 -90 -90   XYZ
    dof rx
    limits (0.0 90.0)
  end
  begin
     id 30
     name rthumb
     direction -0.707107 -6.34968e-011 0.707107   
     length 0.874992   
     axis -90 -45 4.48555e-014   XYZ
    dof rx rz
    limits (-45.0 45.0)
           (-45.0 45.0)
  end
:hierarchy
  begin
    root lhipjoint rhipjoint lowerback
    lhipjoint lfemur
    lfemur ltibia
    ltibia lfoot
    lfoot ltoes
    rhipjoint rfemur
    rfemur rtibia
    rtibia rfoot
    rfoot rtoes
    lowerback upperback
    upperback thorax
    thorax lowerneck lclavicle rclavicle
    lowerneck upperneck
    upperneck head
    lclavicle lhumerus
    lhumerus lradius
    lradius lwrist
    lwrist lhand lthumb
    lhand lfingers
    rclavicle rhumerus
    rhumerus rradius
    rradius rwrist
    rwrist rhand rthumb
    rhand rfingers
  end

#!OML:ASF C:\ViconDB\ViconDB\414\Spring2016\041811\Spring2016.ASF
:FULLY-SPECIFIED
:DEGREES
1
root 12.4224 18.2456 6.16307 -178.259 -7.47433 -177.61
lowerback -4.90042 0.850411 -0.937087
upperback 1.03128 1.15705 0.873522
thorax 3.77531 0.542537 1.52011
lowerneck -13.0299 3.39301 -4.17641
upperneck 25.3911 1.85821 10.1207
head 10.03 1.13018 4.44897
rclavicle -1.87355e-014 1.39149e-015
rhumerus -41.1406 -18.8315 -84.2609
rradius 31.4534
rwrist 51.5201
rhand -34.8193 -11.4217
rfingers 7.12502
rthumb -7.97036 -41.2514
lclavicle -1.87355e-014 1.39149e-015
lhumerus -37.4143 -1.97351 90.424
lradius 24.6865
lwrist -37.0102
lhand -26.2635 13.6258
lfingers 7.12502
lthumb 0.291236 43.6053
rfemur 169.799 63.069 -163.258
rtibia 27.9663
rfoot -69.0063 -39.8654
rtoes -31.9027
lfemur -9.05113 -8.41509 -16.1537
ltibia 25.1579
lfoot -21.2388 7.81063
ltoes -12.5803
2
root 12.4176 18.2455 6.16065 -178.224 -7.48968 -177.633
lowerback -4.92136 0.839461 -0.943459
upperback 1.01973 1.14349 0.863171
thorax 3.77569 0.535877 1.51218
lowerneck -13.0788 3.40794 -4.12142
upperneck 25.4301 1.87926 10.0661
head 10.0538 1.14028 4.42535
rclavicle 2.64011e-015 -1.19271e-015
rhumerus -41.1116 -18.5522 -84.4168
rradius 31.4689
rwrist 50.9708
rhand -35.0364 -11.4811
rfingers 7.12502
rthumb -8.17988 -41.3027
lclavicle 2.64011e-015 -1.19271e-015
lhumerus -37.4097 -1.72561 90.2894
lradius 24.6749
lwrist -37.373
lhand -25.9457 13.5261
lfingers 7.12502
lthumb 0.598181 43.5051
rfemur 169.857 63.1447 -163.245
rtibia 27.9744
rfoot -69.0515 -39.8288
rtoes -31.9278
lfemur -9.07775 -8.46506 -16.195
ltibia 25.1664
lfoot -21.2688 7.84599
ltoes -12.5998
3
root 12.4127 18.2446 6.15805 -178.202 -7.48324 -177.643
lowerback -4.92224 0.794414 -0.99748
upperback 0.993781 1.08286 0.94628
thorax 3.74879 0.503597 1.62314
lowerneck -13.0646 3.43607 -4.47455
upperneck 25.491 1.93658 10.2861
head 10.0561 1.15409 4.57374
rclavicle 5.49143e-015 3.57812e-015
rhumerus -41.1587 -18.4391 -84.2679
rradius 31.4708
rwrist 51.0092
rhand -34.9877 -11.4831
rfingers 7.12502
rthumb -8.13294 -41.3066
lclavicle 5.49143e-015 3.57812e-015
lhumerus -37.483 -1.57702 90.3989
lradius 24.6994
lwrist -37.3363
lhand -25.8606 13.4868
lfingers 7.12502
lthumb 0.680406 43.4655
rfemur 169.895 63.2042 -163.23
rtibia 27.9829
rfoot -69.1167 -39.8131
rtoes -32.0453
lfemur -9.08722 -8.46366 -16.2267
ltibia 25.1612
lfoot -21.2701 7.86422
ltoes -12.647
4
root 12.4107 18.2442 6.15556 -178.187 -7.45991 -177.676
lowerback -4.92326 0.81595 -1.00436
upperback 1.00397 1.11623 0.861194
thorax 3.76025 0.521283 1.54199
lowerneck -13.0588 3.42691 -4.19757
upperneck 25.4261 1.90551 10.1316
head 10.0433 1.15117 4.46407
rclavicle 1.77664e-015 -6.95746e-015
rhumerus -41.15 -18.6634 -84.3281
rradius 31.455
rwrist 51.0966
rhand -35.0589 -11.5159
rfingers 7.12502
rthumb -8.20165 -41.3367
lclavicle 1.77664e-015 -6.95746e-015
lhumerus -37.4718 -1.73801 90.3539
lradius 24.7184
lwrist -37.184
lhand -25.8246 13.4812
lfingers 7.12502
lthumb 0.71513 43.4597
rfemur 169.897 63.1875 -163.27
rtibia 27.9834
rfoot -69.1396 -39.8703
rtoes -32.0149
lfemur -9.08 -8.45241 -16.2715
ltibia 25.1595
lfoot -21.2883 7.87712
ltoes -12.5987
5
root 12.4078 18.2454 6.15231 -178.178 -7.44768 -177.65
lowerback -4.93511 0.821896 -0.976005
upperback 1.00586 1.12269 0.854521
thorax 3.76934 0.525109 1.51995
lowerneck -13.1397 3.43338 -4.20715
upperneck 25.5042 1.88552 10.2086
head 10.0876 1.14878 4.49673
rclavicle 3.72721e-015 6.75868e-015
rhumerus -41.1464 -18.6243 -84.3766
rradius 31.4442
rwrist 51.0621
rhand -35.0781 -11.5736
rfingers 7.12502
rthumb -8.22013 -41.3937
lclavicle 3.72721e-015 6.75868e-015
lhumerus -37.4325 -1.32389 90.1492
lradius 24.6423
lwrist -37.5851
lhand -25.7772 13.3402
lfingers 7.12502
lthumb 0.76089 43.3185
rfemur 169.92 63.1842 -163.232
rtibia 27.9763
rfoot -69.1494 -39.8907
rtoes -31.8865
lfemur -9.08362 -8.50859 -16.2505
ltibia 25.1624
lfoot -21.3191 7.92205
ltoes -12.5832
6
root 12.4075 18.246 6.14845 -178.188 -7.40169 -177.609
lowerback -4.9487 0.838228 -0.983537
upperback 1.02229 1.14352 0.886226
thorax 3.79257 0.534498 1.55904
lowerneck -13.13 3.41567 -4.24216
upperneck 25.4584 1.87915 10.204
head 10.0691 1.14391 4.49842
rclavicle 2.49102e-015 -8.15017e-015
rhumerus -41.1349 -18.6521 -84.3329
rradius 31.4523
rwrist 51.1004
rhand -35.0464 -11.608
rfingers 7.12502
rthumb -8.18953 -41.4293
lclavicle 2.49102e-015 -8.15017e-015
lhumerus -37.466 -1.61583 90.3348
lradius 24.7248
lwrist -37.2095
lhand -25.7225 13.4023
lfingers 7.12502
lthumb 0.813743 43.3805
rfemur 169.885 63.1066 -163.221
rtibia 27.9701
rfoot -69.1042 -39.8743
rtoes -31.8174
lfemur -9.055 -8.44039 -16.2086
ltibia 25.1577
lfoot -21.3121 7.90397
ltoes -12.5869
7
root 12.4043 18.2449 6.14641 -178.208 -7.4179 -177.589
lowerback -4.92404 0.826755 -0.957394
upperback 1.04377 1.12641 0.884676
thorax 3.80199 0.526386 1.5412
lowerneck -13.1662 3.42375 -4.1814
upperneck 25.4652 1.89861 10.1325
head 10.0795 1.15287 4.46594
rclavicle -2.33324e-014 -6.16232e-015
rhumerus -41.1029 -18.5987 -84.3908
rradius 31.4564
rwrist 50.9816
rhand -35.0584 -11.6615
rfingers 7.12502
rthumb -8.20112 -41.4824
lclavicle -2.33324e-014 -6.16232e-015
lhumerus -37.4565 -1.65373 90.3725
lradius 24.7614
lwrist -37.0328
lhand -25.6958 13.4474
lfingers 7.12502
lthumb 0.839548 43.4255
rfemur 169.83 63.1355 -163.265
rtibia 27.9546
rfoot -69.1002 -39.8666
rtoes -31.8005
lfemur -9.02825 -8.49498 -16.2066
ltibia 25.1665
lfoot -21.3509 7.92904
ltoes -12.567
8
root 12.4019 18.2446 6.14338 -178.183 -7.38996 -177.593
lowerback -4.95241 0.82269 -0.979017
upperback 1.03979 1.12245 0.887439
thorax 3.81355 0.523824 1.55637
lowerneck -13.0943 3.42933 -4.1407
upperneck 25.3804 1.93167 10.0473
head 10.0343 1.16392 4.4265
rclavicle 3.8322e-014 1.19271e-015
rhumerus -41.118 -18.6549 -84.3503
rradius 31.4572
rwrist 51.0902
rhand -35.0541 -11.6216
rfingers 7.12502
rthumb -8.19703 -41.4426
lclavicle 3.8322e-014 1.19271e-015
lhumerus -37.506 -1.67657 90.3862
lradius 24.8066
lwrist -36.9069
lhand -25.6922 13.4383
lfingers 7.12502
lthumb 0.842993 43.4164
rfemur 169.879 63.1606 -163.235
rtibia 27.9437
rfoot -69.1302 -39.8145
rtoes -31.8155
lfemur -9.03622 -8.45598 -16.2142
ltibia 25.1705
lfoot -21.3566 7.91349
ltoes -12.5964
9
root 12.3988 18.2447 6.1409 -178.166 -7.38908 -177.543
lowerback -4.97647 0.775313 -0.972095
upperback 1.04167 1.05807 0.904552
thorax 3.83104 0.491519 1.56543
lowerneck -13.0825 3.47052 -4.09365
upperneck 25.3617 1.98373 10.034
head 10.022 1.19098 4.41823
rclavicle 1.30142e-014 3.97569e-015
rhumerus -41.1029 -18.531 -84.4305
rradius 31.4754
rwrist 51.0828
rhand -35.0193 -11.6241
rfingers 7.12502
rthumb -8.1634 -41.4464
lclavicle 1.30142e-014 3.97569e-015
lhumerus -37.5147 -1.5663 90.3327
lradius 24.8264
lwrist -36.8084
lhand -25.6569 13.4686
lfingers 7.12502
lthumb 0.877074 43.4466
rfemur 169.927 63.1918 -163.153
rtibia 27.927
rfoot -69.1701 -39.7585
rtoes -31.9258
lfemur -9.05718 -8.40447 -16.1654
ltibia 25.1839
lfoot -21.3585 7.88232
ltoes -12.6226
10
root 12.3955 18.2443 6.13849 -178.15 -7.37767 -177.533
lowerback -4.99414 0.758471 -0.992276
upperback 1.06186 1.03653 0.914892
thorax 3.86214 0.479817 1.58626
lowerneck -13.2186 3.49706 -4.00094
upperneck 25.4417 2.01987 9.95196
head 10.0778 1.21108 4.38452
rclavicle -9.48576e-015 -3.18055e-015
rhumerus -41.0423 -18.3925 -84.4735
rradius 31.4727
rwrist 51.013
rhand -35.0473 -11.6622
rfingers 7.12502
rthumb -8.19042 -41.4835
lclavicle -9.48576e-015 -3.18055e-015
lhumerus -37.4812 -1.65897 90.4016
lradius 24.8452
lwrist -36.5847
lhand -25.6326 13.5124
lfingers 7.12502
lthumb 0.900572 43.4902
rfemur 169.963 63.1882 -163.126
rtibia 27.9093
rfoot -69.1815 -39.7868
rtoes -31.899
lfemur -9.07088 -8.38422 -16.159
ltibia 25.2004
lfoot -21.3701 7.86114
ltoes -12.5971
